<mxfile host="Electron" modified="2024-06-08T14:26:24.744Z" agent="Mozilla/5.0 (Windows NT 10.0; Win64; x64) AppleWebKit/537.36 (KHTML, like Gecko) draw.io/24.4.8 Chrome/124.0.6367.207 Electron/30.0.6 Safari/537.36" etag="_h0gK7roeFoys-eapxKZ" version="24.4.8" type="device">
  <diagram name="Сторінка-1" id="FpHCUIjb3dHN0KuE5B6Q">
    <mxGraphModel dx="1098" dy="1180" grid="0" gridSize="10" guides="1" tooltips="1" connect="1" arrows="1" fold="1" page="1" pageScale="1" pageWidth="827" pageHeight="1169" math="0" shadow="0">
      <root>
        <mxCell id="0" />
        <mxCell id="1" parent="0" />
        <mxCell id="fBbAE4L8EJ6cKbL6qZAL-1" style="edgeStyle=orthogonalEdgeStyle;rounded=0;orthogonalLoop=1;jettySize=auto;html=1;exitX=0.5;exitY=1;exitDx=0;exitDy=0;entryX=0.5;entryY=0;entryDx=0;entryDy=0;" edge="1" parent="1" source="fBbAE4L8EJ6cKbL6qZAL-2" target="fBbAE4L8EJ6cKbL6qZAL-6">
          <mxGeometry relative="1" as="geometry" />
        </mxCell>
        <mxCell id="fBbAE4L8EJ6cKbL6qZAL-2" value="" style="ellipse;whiteSpace=wrap;html=1;aspect=fixed;" vertex="1" parent="1">
          <mxGeometry x="449" y="250" width="20" height="20" as="geometry" />
        </mxCell>
        <mxCell id="fBbAE4L8EJ6cKbL6qZAL-3" style="edgeStyle=orthogonalEdgeStyle;rounded=0;orthogonalLoop=1;jettySize=auto;html=1;exitX=0;exitY=0.5;exitDx=0;exitDy=0;" edge="1" parent="1" source="fBbAE4L8EJ6cKbL6qZAL-6" target="fBbAE4L8EJ6cKbL6qZAL-17">
          <mxGeometry relative="1" as="geometry" />
        </mxCell>
        <mxCell id="fBbAE4L8EJ6cKbL6qZAL-4" style="edgeStyle=orthogonalEdgeStyle;rounded=0;orthogonalLoop=1;jettySize=auto;html=1;exitX=0.5;exitY=1;exitDx=0;exitDy=0;entryX=0.5;entryY=0;entryDx=0;entryDy=0;" edge="1" parent="1" source="fBbAE4L8EJ6cKbL6qZAL-6" target="fBbAE4L8EJ6cKbL6qZAL-12">
          <mxGeometry relative="1" as="geometry" />
        </mxCell>
        <mxCell id="fBbAE4L8EJ6cKbL6qZAL-5" style="edgeStyle=orthogonalEdgeStyle;rounded=0;orthogonalLoop=1;jettySize=auto;html=1;exitX=1;exitY=0.5;exitDx=0;exitDy=0;" edge="1" parent="1" source="fBbAE4L8EJ6cKbL6qZAL-6" target="fBbAE4L8EJ6cKbL6qZAL-7">
          <mxGeometry relative="1" as="geometry" />
        </mxCell>
        <mxCell id="fBbAE4L8EJ6cKbL6qZAL-6" value="Оберіть дію" style="rounded=1;whiteSpace=wrap;html=1;" vertex="1" parent="1">
          <mxGeometry x="399" y="330" width="120" height="60" as="geometry" />
        </mxCell>
        <mxCell id="fBbAE4L8EJ6cKbL6qZAL-7" value="&lt;b&gt;Видалити пост&lt;/b&gt;" style="rounded=0;whiteSpace=wrap;html=1;" vertex="1" parent="1">
          <mxGeometry x="609" y="410" width="200" height="30" as="geometry" />
        </mxCell>
        <mxCell id="fBbAE4L8EJ6cKbL6qZAL-8" value="entry/Вибрати пост" style="rounded=0;whiteSpace=wrap;html=1;" vertex="1" parent="1">
          <mxGeometry x="609" y="440" width="200" height="30" as="geometry" />
        </mxCell>
        <mxCell id="fBbAE4L8EJ6cKbL6qZAL-9" style="edgeStyle=orthogonalEdgeStyle;rounded=0;orthogonalLoop=1;jettySize=auto;html=1;exitX=0.5;exitY=1;exitDx=0;exitDy=0;entryX=1;entryY=0.5;entryDx=0;entryDy=0;" edge="1" parent="1" source="fBbAE4L8EJ6cKbL6qZAL-10" target="fBbAE4L8EJ6cKbL6qZAL-22">
          <mxGeometry relative="1" as="geometry">
            <mxPoint x="539" y="830" as="targetPoint" />
          </mxGeometry>
        </mxCell>
        <mxCell id="fBbAE4L8EJ6cKbL6qZAL-10" value="&lt;span style=&quot;text-wrap: nowrap;&quot;&gt;exit/&lt;/span&gt;&lt;span style=&quot;text-wrap: nowrap;&quot;&gt;Видалення посту&lt;/span&gt;" style="rounded=0;whiteSpace=wrap;html=1;" vertex="1" parent="1">
          <mxGeometry x="609" y="470" width="200" height="30" as="geometry" />
        </mxCell>
        <mxCell id="fBbAE4L8EJ6cKbL6qZAL-11" value="" style="group" vertex="1" connectable="0" parent="1">
          <mxGeometry x="359" y="550" width="200" height="120" as="geometry" />
        </mxCell>
        <mxCell id="fBbAE4L8EJ6cKbL6qZAL-12" value="&lt;b&gt;Редагувати пост&lt;/b&gt;" style="rounded=0;whiteSpace=wrap;html=1;" vertex="1" parent="fBbAE4L8EJ6cKbL6qZAL-11">
          <mxGeometry width="200" height="30" as="geometry" />
        </mxCell>
        <mxCell id="fBbAE4L8EJ6cKbL6qZAL-13" value="entry/Вибрати пост" style="rounded=0;whiteSpace=wrap;html=1;" vertex="1" parent="fBbAE4L8EJ6cKbL6qZAL-11">
          <mxGeometry y="30" width="200" height="30" as="geometry" />
        </mxCell>
        <mxCell id="fBbAE4L8EJ6cKbL6qZAL-14" value="&lt;span style=&quot;text-wrap: nowrap;&quot;&gt;do/Редагування посту&lt;/span&gt;" style="rounded=0;whiteSpace=wrap;html=1;" vertex="1" parent="fBbAE4L8EJ6cKbL6qZAL-11">
          <mxGeometry y="60" width="200" height="30" as="geometry" />
        </mxCell>
        <mxCell id="fBbAE4L8EJ6cKbL6qZAL-15" value="&lt;span style=&quot;text-wrap: nowrap;&quot;&gt;exit/&lt;/span&gt;&lt;span style=&quot;text-wrap: nowrap;&quot;&gt;Підтвердження&amp;nbsp;&lt;/span&gt;&lt;span style=&quot;text-wrap: nowrap; background-color: initial;&quot;&gt;редагування&lt;/span&gt;&lt;div&gt;&lt;span style=&quot;text-wrap: nowrap; background-color: initial;&quot;&gt;&amp;nbsp;посту&lt;/span&gt;&lt;/div&gt;" style="rounded=0;whiteSpace=wrap;html=1;" vertex="1" parent="fBbAE4L8EJ6cKbL6qZAL-11">
          <mxGeometry y="90" width="200" height="30" as="geometry" />
        </mxCell>
        <mxCell id="fBbAE4L8EJ6cKbL6qZAL-16" value="" style="group" vertex="1" connectable="0" parent="1">
          <mxGeometry x="19" y="430" width="200" height="120" as="geometry" />
        </mxCell>
        <mxCell id="fBbAE4L8EJ6cKbL6qZAL-17" value="&lt;b&gt;Додати пост&lt;/b&gt;" style="rounded=0;whiteSpace=wrap;html=1;" vertex="1" parent="fBbAE4L8EJ6cKbL6qZAL-16">
          <mxGeometry width="200" height="30" as="geometry" />
        </mxCell>
        <mxCell id="fBbAE4L8EJ6cKbL6qZAL-18" value="entry/Натискання кнопки&amp;nbsp;Створити новий пост»" style="rounded=0;whiteSpace=wrap;html=1;" vertex="1" parent="fBbAE4L8EJ6cKbL6qZAL-16">
          <mxGeometry y="30" width="200" height="30" as="geometry" />
        </mxCell>
        <mxCell id="fBbAE4L8EJ6cKbL6qZAL-19" value="&lt;span style=&quot;text-wrap: nowrap;&quot;&gt;do/Введення даних посту&lt;/span&gt;" style="rounded=0;whiteSpace=wrap;html=1;" vertex="1" parent="fBbAE4L8EJ6cKbL6qZAL-16">
          <mxGeometry y="60" width="200" height="30" as="geometry" />
        </mxCell>
        <mxCell id="fBbAE4L8EJ6cKbL6qZAL-20" value="" style="curved=1;endArrow=classic;html=1;rounded=0;exitX=0.18;exitY=0.033;exitDx=0;exitDy=0;exitPerimeter=0;entryX=0.435;entryY=-0.1;entryDx=0;entryDy=0;entryPerimeter=0;" edge="1" parent="fBbAE4L8EJ6cKbL6qZAL-16" source="fBbAE4L8EJ6cKbL6qZAL-17" target="fBbAE4L8EJ6cKbL6qZAL-17">
          <mxGeometry width="50" height="50" relative="1" as="geometry">
            <mxPoint x="30" y="-10" as="sourcePoint" />
            <mxPoint x="80" y="-10" as="targetPoint" />
            <Array as="points">
              <mxPoint x="50" y="-70" />
              <mxPoint x="80" y="-70" />
            </Array>
          </mxGeometry>
        </mxCell>
        <mxCell id="fBbAE4L8EJ6cKbL6qZAL-21" value="&lt;span style=&quot;text-wrap: nowrap;&quot;&gt;do/Введення тексту посту&lt;/span&gt;" style="rounded=0;whiteSpace=wrap;html=1;" vertex="1" parent="fBbAE4L8EJ6cKbL6qZAL-16">
          <mxGeometry y="90" width="200" height="30" as="geometry" />
        </mxCell>
        <mxCell id="fBbAE4L8EJ6cKbL6qZAL-22" value="" style="ellipse;whiteSpace=wrap;html=1;aspect=fixed;" vertex="1" parent="1">
          <mxGeometry x="619" y="880" width="20" height="20" as="geometry" />
        </mxCell>
        <mxCell id="fBbAE4L8EJ6cKbL6qZAL-23" style="edgeStyle=orthogonalEdgeStyle;rounded=0;orthogonalLoop=1;jettySize=auto;html=1;exitX=0.5;exitY=1;exitDx=0;exitDy=0;entryX=1;entryY=0.5;entryDx=0;entryDy=0;" edge="1" parent="1" source="fBbAE4L8EJ6cKbL6qZAL-15" target="fBbAE4L8EJ6cKbL6qZAL-29">
          <mxGeometry relative="1" as="geometry">
            <mxPoint x="459" y="800" as="targetPoint" />
          </mxGeometry>
        </mxCell>
        <mxCell id="fBbAE4L8EJ6cKbL6qZAL-24" value="" style="curved=1;endArrow=classic;html=1;rounded=0;exitX=0.18;exitY=0.033;exitDx=0;exitDy=0;exitPerimeter=0;entryX=0.435;entryY=-0.1;entryDx=0;entryDy=0;entryPerimeter=0;" edge="1" parent="1">
          <mxGeometry width="50" height="50" relative="1" as="geometry">
            <mxPoint x="389" y="550.5" as="sourcePoint" />
            <mxPoint x="440" y="546.5" as="targetPoint" />
            <Array as="points">
              <mxPoint x="403" y="479.5" />
              <mxPoint x="433" y="479.5" />
            </Array>
          </mxGeometry>
        </mxCell>
        <mxCell id="fBbAE4L8EJ6cKbL6qZAL-25" value="OnStringTyped" style="text;html=1;align=center;verticalAlign=middle;resizable=0;points=[];autosize=1;strokeColor=none;fillColor=none;" vertex="1" parent="1">
          <mxGeometry x="19" y="320" width="100" height="30" as="geometry" />
        </mxCell>
        <mxCell id="fBbAE4L8EJ6cKbL6qZAL-26" value="OnStringTyped" style="text;html=1;align=center;verticalAlign=middle;resizable=0;points=[];autosize=1;strokeColor=none;fillColor=none;" vertex="1" parent="1">
          <mxGeometry x="343" y="450" width="100" height="30" as="geometry" />
        </mxCell>
        <mxCell id="fBbAE4L8EJ6cKbL6qZAL-27" style="edgeStyle=orthogonalEdgeStyle;rounded=0;orthogonalLoop=1;jettySize=auto;html=1;exitX=0.5;exitY=1;exitDx=0;exitDy=0;entryX=0.1;entryY=0.067;entryDx=0;entryDy=0;entryPerimeter=0;" edge="1" parent="1" source="fBbAE4L8EJ6cKbL6qZAL-36" target="fBbAE4L8EJ6cKbL6qZAL-29">
          <mxGeometry relative="1" as="geometry" />
        </mxCell>
        <mxCell id="fBbAE4L8EJ6cKbL6qZAL-28" value="" style="group" vertex="1" connectable="0" parent="1">
          <mxGeometry x="139" y="820" width="200" height="90" as="geometry" />
        </mxCell>
        <mxCell id="fBbAE4L8EJ6cKbL6qZAL-29" value="&lt;b&gt;Перевірка даних&lt;/b&gt;" style="rounded=0;whiteSpace=wrap;html=1;container=0;" vertex="1" parent="fBbAE4L8EJ6cKbL6qZAL-28">
          <mxGeometry width="200" height="30" as="geometry" />
        </mxCell>
        <mxCell id="fBbAE4L8EJ6cKbL6qZAL-30" value="entry/Перевірка даних посту" style="rounded=0;whiteSpace=wrap;html=1;container=0;" vertex="1" parent="fBbAE4L8EJ6cKbL6qZAL-28">
          <mxGeometry y="30" width="200" height="30" as="geometry" />
        </mxCell>
        <mxCell id="fBbAE4L8EJ6cKbL6qZAL-31" value="&lt;span style=&quot;text-wrap: nowrap;&quot;&gt;exit/Зберегти&lt;/span&gt;" style="rounded=0;whiteSpace=wrap;html=1;container=0;" vertex="1" parent="fBbAE4L8EJ6cKbL6qZAL-28">
          <mxGeometry y="60" width="200" height="30" as="geometry" />
        </mxCell>
        <mxCell id="fBbAE4L8EJ6cKbL6qZAL-32" style="edgeStyle=orthogonalEdgeStyle;rounded=0;orthogonalLoop=1;jettySize=auto;html=1;entryX=0;entryY=0.75;entryDx=0;entryDy=0;" edge="1" parent="1" target="fBbAE4L8EJ6cKbL6qZAL-6">
          <mxGeometry relative="1" as="geometry">
            <mxPoint x="319" y="820" as="sourcePoint" />
            <Array as="points">
              <mxPoint x="319" y="375" />
            </Array>
          </mxGeometry>
        </mxCell>
        <mxCell id="fBbAE4L8EJ6cKbL6qZAL-33" value="[data_is_incorrect]" style="text;html=1;align=center;verticalAlign=middle;resizable=0;points=[];autosize=1;strokeColor=none;fillColor=none;" vertex="1" parent="1">
          <mxGeometry x="199" y="610" width="120" height="30" as="geometry" />
        </mxCell>
        <mxCell id="fBbAE4L8EJ6cKbL6qZAL-34" style="edgeStyle=orthogonalEdgeStyle;rounded=0;orthogonalLoop=1;jettySize=auto;html=1;entryX=0;entryY=0.5;entryDx=0;entryDy=0;" edge="1" parent="1" target="fBbAE4L8EJ6cKbL6qZAL-22">
          <mxGeometry relative="1" as="geometry">
            <mxPoint x="339" y="890" as="sourcePoint" />
          </mxGeometry>
        </mxCell>
        <mxCell id="fBbAE4L8EJ6cKbL6qZAL-35" value="[data_is_correct]" style="text;html=1;align=center;verticalAlign=middle;resizable=0;points=[];autosize=1;strokeColor=none;fillColor=none;" vertex="1" parent="1">
          <mxGeometry x="394" y="860" width="110" height="30" as="geometry" />
        </mxCell>
        <mxCell id="fBbAE4L8EJ6cKbL6qZAL-36" value="&lt;span style=&quot;text-wrap: nowrap;&quot;&gt;exit/&lt;/span&gt;Натискання кнопки&amp;nbsp;«Створити новий пост»" style="rounded=0;whiteSpace=wrap;html=1;" vertex="1" parent="1">
          <mxGeometry x="19" y="550" width="200" height="30" as="geometry" />
        </mxCell>
      </root>
    </mxGraphModel>
  </diagram>
</mxfile>
